<?xml version="1.0" encoding="utf-8"?>
<!-- Generator: Adobe Illustrator 22.0.1, SVG Export Plug-In . SVG Version: 6.00 Build 0)  -->
<svg version="1.1" id="Слой_1" xmlns="http://www.w3.org/2000/svg" xmlns:xlink="http://www.w3.org/1999/xlink" x="0px" y="0px"
	 viewBox="0 0 102.9 102.1" style="enable-background:new 0 0 102.9 102.1;" xml:space="preserve">
<style type="text/css">
	.st0{opacity:0.4;}
	.st1{opacity:0.4;fill:#8D0205;enable-background:new    ;}
	.st2{fill:none;stroke:#8D0205;stroke-width:3;}
	.st3{fill:#8D0205;}
</style>
<g class="st0">
	<path class="st1" d="M51.9,98c26,0,47-20.8,47-46.5S77.9,5,51.9,5s-47,20.8-47,46.5S25.9,98,51.9,98z"/>
</g>
<circle class="st2" cx="51.4" cy="51.5" r="47"/>
<g>
	<g>
		<path class="st3" d="M71.5,37.3c-0.4-0.5-1.2-0.7-1.8-0.4l-13.2,7.6c-0.6,0.4-0.8,1.1-0.5,1.7c1.5,3.2,4.7,5.3,8.3,5.3
			c4.9,0,9-4.1,9-9C73.2,40.7,72.7,38.9,71.5,37.3z M64.2,48.9c-2.1,0-4-1-5.2-2.7l3.8-2.2c0.1,0.6,0.7,1.1,1.3,1.1
			c0.8,0,1.3-0.6,1.3-1.4v-0.1c0-0.4-0.2-0.7-0.4-1l4.8-2.8c0.4,0.8,0.6,1.7,0.6,2.6C70.6,46.1,67.7,48.9,64.2,48.9z"/>
		<path class="st3" d="M36.9,51.6c3.6,0,6.8-2.1,8.2-5.3c0.3-0.6,0.1-1.4-0.5-1.7L31.4,37c-0.6-0.3-1.4-0.2-1.8,0.4
			c-1.1,1.5-1.7,3.3-1.7,5.2C27.9,47.5,32,51.6,36.9,51.6z M31.2,40l4.8,2.7c-0.3,0.3-0.4,0.6-0.4,1v0.1c0,0.8,0.6,1.4,1.3,1.4
			c0.7,0,1.2-0.5,1.3-1.1l3.8,2.3c-1.2,1.7-3.1,2.7-5.2,2.7c-3.5,0-6.3-2.9-6.3-6.3C30.6,41.7,30.8,40.8,31.2,40z"/>
		<path class="st3" d="M73.3,69.2c-0.4-0.6-1.2-0.8-1.9-0.4l-0.6,0.4c-1.4-2-5.6-6.6-13.4-5.6c-5.2,0.7-7.5,2.5-9.5,4.2
			c-1.7,1.4-3.3,2.8-7.2,3.4c-5.4,0.9-9.4-2.2-9.5-2.3c-0.6-0.4-1.4-0.4-1.9,0.2c-0.4,0.6-0.4,1.4,0.2,1.9c0.2,0.2,3.8,3.1,9.1,3.1
			c0.8,0,1.6-0.1,2.5-0.2c4.5-0.8,6.6-2.5,8.4-4c1.9-1.5,3.6-2.9,8.1-3.6c6.5-0.9,9.8,2.8,10.8,4.3L68,70.9
			c-0.6,0.4-0.8,1.2-0.4,1.9c0.4,0.6,1.2,0.8,1.9,0.4l3.2-2.1C73.5,70.6,73.6,69.8,73.3,69.2z"/>
		<path class="st3" d="M43.8,42c0.3,0.2,0.5,0.3,0.8,0.3c0.4,0,0.9-0.2,1.1-0.5c0.4-0.6,0.3-1.5-0.3-1.9l-12.5-9.3
			c-0.6-0.4-1.5-0.3-1.9,0.3s-0.3,1.5,0.3,1.9L43.8,42z"/>
		<path class="st3" d="M56.5,42.3c0.3,0,0.5-0.1,0.8-0.3l12.5-9.3c0.6-0.4,0.7-1.3,0.3-1.9c-0.4-0.6-1.3-0.7-1.9-0.3l-12.5,9.3
			c-0.6,0.4-0.7,1.3-0.3,1.9C55.7,42.1,56.1,42.3,56.5,42.3z"/>
	</g>
</g>
</svg>
