<?xml version="1.0" encoding="utf-8"?>
<!-- Generator: Adobe Illustrator 22.0.1, SVG Export Plug-In . SVG Version: 6.00 Build 0)  -->
<svg version="1.1" id="Слой_1" xmlns="http://www.w3.org/2000/svg" xmlns:xlink="http://www.w3.org/1999/xlink" x="0px" y="0px"
	 viewBox="0 0 102.5 102.7" style="enable-background:new 0 0 102.5 102.7;" xml:space="preserve">
<style type="text/css">
	.st0{opacity:0.4;}
	.st1{opacity:0.4;fill:#079D26;enable-background:new    ;}
	.st2{fill:#079D26;}
	.st3{fill:none;stroke:#079D26;stroke-width:3;}
</style>
<g class="st0">
	<path class="st1" d="M50.3,99.8c26.2,0,47.5-21.3,47.5-47.5S76.4,4.8,50.3,4.8S2.8,26.1,2.8,52.3S24,99.8,50.3,99.8z"/>
</g>
<g>
	<path class="st2" d="M39.2,47.6c0.2,0.1,0.4,0.1,0.6,0.1c0.3,0,0.5-0.1,0.7-0.2c0.4-0.3,0.6-0.7,0.5-1.2l-1-6l4.4-4.3
		c0.3-0.3,0.5-0.8,0.3-1.3c-0.1-0.4-0.5-0.8-1-0.8L37.6,33l-2.7-5.5c-0.2-0.4-0.6-0.7-1.1-0.7s-0.9,0.3-1.1,0.7L29.9,33l-6.1,0.9
		c-0.5,0.1-0.9,0.4-1,0.8c-0.1,0.4,0,0.9,0.3,1.3l4.4,4.3l-1,6c-0.1,0.5,0.1,0.9,0.5,1.2s0.9,0.3,1.3,0.1l5.4-2.9L39.2,47.6z
		 M29.4,44.2l0.7-4.2c0.1-0.4-0.1-0.8-0.4-1.1l-3.1-3l4.2-0.6c0.4-0.1,0.8-0.3,0.9-0.7l2.1-3.8l1.9,3.8c0.2,0.4,0.5,0.6,0.9,0.7
		l4.2,0.6l-3.1,3c-0.3,0.3-0.4,0.7-0.4,1.1l0.7,4.2l-3.8-2c-0.2-0.1-0.4-0.1-0.6-0.1c-0.2,0-0.4,0-0.6,0.1L29.4,44.2z"/>
	<path class="st2" d="M78.7,34.7c-0.1-0.4-0.5-0.8-1-0.8L71.6,33l-2.7-5.5c-0.2-0.4-0.6-0.7-1.1-0.7s-0.9,0.3-1.1,0.7L64,33
		l-6.1,0.9c-0.5,0.1-0.9,0.4-1,0.8c-0.1,0.4,0,0.9,0.3,1.3l4.4,4.3l-1,6c-0.1,0.5,0.1,0.9,0.5,1.2s0.9,0.3,1.3,0.1l5.4-2.9l5.4,2.9
		c0.2,0.1,0.4,0.1,0.6,0.1c0.3,0,0.5-0.1,0.7-0.2c0.4-0.3,0.6-0.7,0.5-1.2l-1-6l4.4-4.3C78.8,35.6,78.8,35.1,78.7,34.7z M71.8,38.9
		c-0.3,0.3-0.4,0.7-0.4,1.1l0.7,4.2l-3.8-2c-0.2-0.1-0.4-0.1-0.6-0.1s-0.4,0-0.6,0.1l-3.8,2l0.7-4.2c0.1-0.4-0.1-0.8-0.4-1.1l-3.1-3
		l4.2-0.6c0.4-0.1,0.8-0.3,0.9-0.7l2.2-3.8l1.9,3.8c0.2,0.4,0.5,0.6,0.9,0.7l4.2,0.6L71.8,38.9z"/>
	<path class="st2" d="M71.9,59.3H31.6c-0.7,0-1.2,0.5-1.2,1.2c0,11.8,9.5,21.3,21.3,21.3c8,0,15-4.4,18.7-11c0-0.1,0.1-0.2,0.1-0.2
		c1.6-3,2.6-6.4,2.6-10.1C73.2,59.9,72.7,59.3,71.9,59.3z M51.8,79.3c-6.4,0-12-3.1-15.4-7.9h30.9C63.8,76.2,58.2,79.3,51.8,79.3z
		 M68.8,68.9H34.8c-1.1-2.2-1.8-4.6-1.9-7.1h37.7C70.4,64.3,69.8,66.7,68.8,68.9z"/>
</g>
<circle class="st3" cx="51.3" cy="51.3" r="47"/>
</svg>
