<?xml version="1.0" encoding="utf-8"?>
<!-- Generator: Adobe Illustrator 22.0.1, SVG Export Plug-In . SVG Version: 6.00 Build 0)  -->
<svg version="1.1" id="Слой_1" xmlns="http://www.w3.org/2000/svg" xmlns:xlink="http://www.w3.org/1999/xlink" x="0px" y="0px"
	 viewBox="0 0 102.9 102.8" style="enable-background:new 0 0 102.9 102.8;" xml:space="preserve">
<style type="text/css">
	.st0{opacity:0.4;}
	.st1{opacity:0.4;fill:#FE5A59;enable-background:new    ;}
	.st2{fill:none;stroke:#FE5A59;stroke-width:3;}
	.st3{clip-path:url(#SVGID_2_);}
	.st4{fill:#FE5A59;}
</style>
<g class="st0">
	<path class="st1" d="M50.6,97.9c25.7,0,46.5-20.8,46.5-46.5S76.3,4.9,50.6,4.9C24.9,4.9,4.1,25.7,4.1,51.4S25,97.9,50.6,97.9z"/>
</g>
<circle class="st2" cx="50.9" cy="51.4" r="47"/>
<g>
	<g>
		<defs>
			<rect id="SVGID_1_" x="23.4" y="31.9" width="55" height="45"/>
		</defs>
		<clipPath id="SVGID_2_">
			<use xlink:href="#SVGID_1_"  style="overflow:visible;"/>
		</clipPath>
		<g class="st3">
			<path class="st4" d="M60.5,76.9H42.3c-0.9,0-1.6-0.7-1.6-1.6s0.7-1.6,1.6-1.6h18.2c0.9,0,1.6,0.7,1.6,1.6S61.4,76.9,60.5,76.9z"
				/>
			<path class="st4" d="M77.9,38.5c-0.3-0.3-0.7-0.5-1.2-0.5H58.5c-0.4,0-0.8,0.2-1.1,0.5c-0.3,0.3-0.5,0.7-0.5,1.1
				C57,45.3,61.8,50,67.6,50c5.8,0,10.6-4.7,10.7-10.4C78.4,39.2,78.2,38.8,77.9,38.5z M67.7,46.9c-3.5,0-6.5-2.4-7.3-5.7h5.7
				c0,0,0,0.1,0,0.2v0.2c0,0.9,0.7,1.6,1.6,1.6s1.6-0.7,1.6-1.6v-0.2c0,0,0-0.1,0-0.2H75C74.2,44.5,71.2,46.9,67.7,46.9z"/>
			<path class="st4" d="M44.4,38.5c-0.3-0.3-0.7-0.5-1.1-0.5H25.1c-0.4,0-0.8,0.2-1.2,0.5c-0.3,0.3-0.5,0.7-0.5,1.1
				C23.5,45.3,28.3,50,34.1,50c5.8,0,10.6-4.7,10.7-10.4C44.8,39.2,44.7,38.8,44.4,38.5z M34.1,46.9c-3.5,0-6.5-2.4-7.3-5.7h5.7
				c0,0,0,0.1,0,0.2v0.2c0,0.9,0.7,1.6,1.6,1.6s1.6-0.7,1.6-1.6v-0.2c0,0,0-0.1,0-0.2h5.7C40.6,44.5,37.6,46.9,34.1,46.9z"/>
			<path class="st4" d="M76.5,35.1H58.8c-0.9,0-1.6-0.7-1.6-1.6c0-0.9,0.7-1.6,1.6-1.6h17.7c0.9,0,1.6,0.7,1.6,1.6
				S77.4,35.1,76.5,35.1z"/>
			<path class="st4" d="M43.1,35.1H25.4c-0.9,0-1.6-0.7-1.6-1.6c0-0.9,0.7-1.6,1.6-1.6h17.7c0.9,0,1.6,0.7,1.6,1.6
				C44.7,34.4,44,35.1,43.1,35.1z"/>
		</g>
	</g>
</g>
</svg>
