<?xml version="1.0" encoding="utf-8"?>
<!-- Generator: Adobe Illustrator 22.0.1, SVG Export Plug-In . SVG Version: 6.00 Build 0)  -->
<svg version="1.1" id="Слой_1" xmlns="http://www.w3.org/2000/svg" xmlns:xlink="http://www.w3.org/1999/xlink" x="0px" y="0px"
	 viewBox="0 0 102.5 101.2" style="enable-background:new 0 0 102.5 101.2;" xml:space="preserve">
<style type="text/css">
	.st0{opacity:0.4;}
	.st1{opacity:0.4;fill:#FF8353;enable-background:new    ;}
	.st2{fill:none;stroke:#FF8353;stroke-width:3;}
	.st3{clip-path:url(#SVGID_2_);}
	.st4{fill:#FF8353;}
</style>
<g class="st0">
	<path class="st1" d="M50.7,95.5c25.2,0,45.6-20.4,45.6-45.6S75.9,4.3,50.7,4.3S5.1,24.7,5.1,49.9S25.5,95.5,50.7,95.5z"/>
</g>
<circle class="st2" cx="50.7" cy="49.9" r="45.5"/>
<g>
	<g>
		<defs>
			<rect id="SVGID_1_" x="26" y="26.2" width="51.4" height="47.5"/>
		</defs>
		<clipPath id="SVGID_2_">
			<use xlink:href="#SVGID_1_"  style="overflow:visible;"/>
		</clipPath>
		<g class="st3">
			<path class="st4" d="M59.1,73.6H42.9c-0.8,0-1.5-0.7-1.5-1.5s0.7-1.5,1.5-1.5h16.2c0.8,0,1.5,0.7,1.5,1.5
				C60.6,73,59.9,73.6,59.1,73.6z"/>
			<path class="st4" d="M67.3,46c-7.1,0-9.5-2.9-9.7-3.2c-0.5-0.7-0.3-1.6,0.3-2.1c0.7-0.5,1.7-0.3,2.2,0.3c0,0,1.7,2,7.2,2
				s7.3-2,7.3-2c0.5-0.7,1.5-0.8,2.1-0.3c0.7,0.5,0.8,1.5,0.3,2.1C76.8,43.1,74.5,46,67.3,46z"/>
			<path class="st4" d="M36,46c-7.1,0-9.5-2.9-9.7-3.2c-0.5-0.7-0.3-1.6,0.3-2.1c0.7-0.5,1.6-0.3,2.1,0.3c0,0,1.7,2,7.2,2
				s7.3-2,7.3-2c0.5-0.7,1.5-0.8,2.1-0.3c0.7,0.5,0.8,1.5,0.3,2.1C45.5,43.1,43.2,46,36,46z"/>
			<path class="st4" d="M75.5,35.3L75.5,35.3c-0.3,0-5.6-0.2-10.8-2.4c-5.2-2.2-6.7-4-6.9-4.3c-0.5-0.7-0.3-1.6,0.4-2.1
				c0.7-0.5,1.7-0.3,2.1,0.4c0,0,1.2,1.4,5.5,3.2c4.8,2,9.7,2.2,9.7,2.2c0.8,0,1.5,0.7,1.5,1.6C77,34.6,76.4,35.3,75.5,35.3z"/>
			<path class="st4" d="M27.5,35.3c-0.8,0-1.5-0.6-1.5-1.5c0-0.8,0.6-1.5,1.5-1.6c0.1,0,5-0.2,9.7-2.2c4.4-1.8,5.6-3.2,5.6-3.2
				c0.5-0.7,1.4-0.9,2.1-0.4s0.9,1.4,0.4,2.1c-0.2,0.3-1.7,2.1-6.9,4.3C33.1,35,27.8,35.3,27.5,35.3C27.6,35.3,27.5,35.3,27.5,35.3z
				"/>
		</g>
	</g>
</g>
</svg>
