<?xml version="1.0" encoding="utf-8"?>
<!-- Generator: Adobe Illustrator 22.0.1, SVG Export Plug-In . SVG Version: 6.00 Build 0)  -->
<svg version="1.1" id="Слой_1" xmlns="http://www.w3.org/2000/svg" xmlns:xlink="http://www.w3.org/1999/xlink" x="0px" y="0px"
	 viewBox="0 0 102.7 102.9" style="enable-background:new 0 0 102.7 102.9;" xml:space="preserve">
<style type="text/css">
	.st0{opacity:0.4;}
	.st1{opacity:0.4;fill:#FFB800;enable-background:new    ;}
	.st2{fill:none;stroke:#FFB800;stroke-width:3;}
	.st3{clip-path:url(#SVGID_2_);}
	.st4{fill:#FFB800;}
</style>
<g class="st0">
	<path class="st1" d="M51,99.2c26.2,0,47.5-21.3,47.5-47.5S77.2,4.2,51,4.2S3.5,25.5,3.5,51.7C3.5,78,24.8,99.2,51,99.2z"/>
</g>
<circle class="st2" cx="51" cy="51.6" r="47"/>
<g>
	<g>
		<defs>
			<rect id="SVGID_1_" x="27.5" y="22.1" width="47" height="59"/>
		</defs>
		<clipPath id="SVGID_2_">
			<use xlink:href="#SVGID_1_"  style="overflow:visible;"/>
		</clipPath>
		<g class="st3">
			<path class="st4" d="M61.8,81.1c-0.4,0-0.8-0.1-1.1-0.4c-2.6-2.6-6.1-4.1-9.8-4.1c-3.7,0-7.2,1.4-9.8,4.1c-0.6,0.6-1.5,0.6-2.1,0
				s-0.6-1.5,0-2.1c3.2-3.2,7.4-5,11.9-5s8.7,1.8,11.9,5c0.6,0.6,0.6,1.5,0,2.1C62.6,81,62.2,81.1,61.8,81.1z"/>
			<path class="st4" d="M65.5,36.1c-5,0-9,4.1-9,9.1s4,9.1,9,9.1s9-4.1,9-9.1S70.4,36.1,65.5,36.1z M65.5,51.3
				c-3.3,0-6.1-2.7-6.1-6.1s2.7-6.1,6.1-6.1c3.3,0,6.1,2.7,6.1,6.1S68.8,51.3,65.5,51.3z"/>
			<path class="st4" d="M36.5,36.1c-5,0-9,4.1-9,9.1s4.1,9.1,9,9.1c5,0,9-4.1,9-9.1C45.6,40.2,41.5,36.1,36.5,36.1z M36.5,51.3
				c-3.4,0-6.1-2.7-6.1-6.1s2.7-6.1,6.1-6.1c3.3,0,6.1,2.7,6.1,6.1S39.9,51.3,36.5,51.3z"/>
			<path class="st4" d="M65.5,46.8c-0.8,0-1.5-0.7-1.5-1.5v-0.1c0-0.8,0.7-1.5,1.5-1.5s1.5,0.7,1.5,1.5v0.1
				C66.9,46.2,66.3,46.8,65.5,46.8z"/>
			<path class="st4" d="M36.5,46.8c-0.8,0-1.5-0.7-1.5-1.5v-0.1c0-0.8,0.7-1.5,1.5-1.5s1.5,0.7,1.5,1.5v0.1
				C38,46.2,37.4,46.8,36.5,46.8z"/>
			<path class="st4" d="M32.6,31.3c-0.4,0-0.9-0.2-1.2-0.6c-0.5-0.7-0.4-1.6,0.2-2.1l7.8-6.2c0.6-0.5,1.6-0.4,2.1,0.2
				s0.4,1.6-0.2,2.1l-7.8,6.2C33.3,31.2,33,31.3,32.6,31.3z"/>
			<path class="st4" d="M69.4,31.3c-0.3,0-0.7-0.1-0.9-0.3l-7.8-6.2c-0.7-0.5-0.8-1.4-0.2-2.1c0.5-0.6,1.4-0.8,2.1-0.2l7.8,6.2
				c0.6,0.5,0.8,1.4,0.2,2.1C70.2,31.1,69.8,31.3,69.4,31.3z"/>
		</g>
	</g>
</g>
</svg>
