<?xml version="1.0" encoding="utf-8"?>
<!-- Generator: Adobe Illustrator 22.0.1, SVG Export Plug-In . SVG Version: 6.00 Build 0)  -->
<svg version="1.1" id="Слой_1" xmlns="http://www.w3.org/2000/svg" xmlns:xlink="http://www.w3.org/1999/xlink" x="0px" y="0px"
	 viewBox="0 0 102.7 102.9" style="enable-background:new 0 0 102.7 102.9;" xml:space="preserve">
<style type="text/css">
	.st0{opacity:0.4;}
	.st1{opacity:0.4;fill:#D7E317;enable-background:new    ;}
	.st2{fill:none;stroke:#D7E317;stroke-width:3;}
	.st3{fill:#D7E317;}
</style>
<g class="st0">
	<path class="st1" d="M51.5,97C77.2,97,98,76.4,98,51S77.2,5,51.5,5S5,25.6,5,51S25.8,97,51.5,97z"/>
</g>
<circle class="st2" cx="51.5" cy="51.5" r="47"/>
<g class="st0">
	<path class="st3" d="M52.6,81c-4.8,0-12.1-4.1-15.5-7.5c-0.6-0.6-0.6-1.6,0-2.2s1.6-0.6,2.2,0c2.8,2.8,9.3,6.6,13.2,6.6
		s10.5-3.6,13.2-6.4c0.6-0.6,1.6-0.6,2.2,0c0.6,0.6,0.6,1.6,0,2.2C64.7,77,57.4,81,52.6,81z"/>
	<path class="st3" d="M67.4,34.2c-5.3,0-9.6,4.3-9.6,9.6s4.3,9.6,9.6,9.6s9.6-4.3,9.6-9.6S72.7,34.2,67.4,34.2z M67.4,50.2
		c-3.6,0-6.5-2.9-6.5-6.4s2.9-6.4,6.5-6.4s6.5,2.9,6.5,6.4C73.8,47.3,70.9,50.2,67.4,50.2z"/>
	<path class="st3" d="M36.6,34.2c-5.3,0-9.6,4.3-9.6,9.6s4.3,9.6,9.6,9.6s9.6-4.3,9.6-9.6C46.2,38.5,41.9,34.2,36.6,34.2z
		 M36.6,50.2c-3.6,0-6.5-2.9-6.5-6.4c0-3.6,2.9-6.4,6.5-6.4s6.5,2.9,6.5,6.4S40.2,50.2,36.6,50.2z"/>
	<path class="st3" d="M67.4,45.5c-0.9,0-1.6-0.7-1.6-1.6v-0.2c0-0.9,0.7-1.6,1.6-1.6c0.9,0,1.6,0.7,1.6,1.6v0.2
		C69,44.8,68.3,45.5,67.4,45.5z"/>
	<path class="st3" d="M36.6,45.5c-0.9,0-1.6-0.7-1.6-1.6v-0.2c0-0.9,0.7-1.6,1.6-1.6c0.9,0,1.6,0.7,1.6,1.6v0.2
		C38.2,44.8,37.5,45.5,36.6,45.5z"/>
	<path class="st3" d="M31.6,27.7c-0.7,0-1.3-0.4-1.5-1c-0.3-0.8,0.1-1.7,1-2l10-3.6c0.8-0.3,1.7,0.1,2,0.9s-0.1,1.7-1,2l-10,3.6
		C32,27.7,31.8,27.7,31.6,27.7z"/>
	<path class="st3" d="M72.4,27.7c-0.2,0-0.4,0-0.5-0.1l-10-3.6c-0.8-0.3-1.2-1.2-1-2c0.3-0.8,1.2-1.2,2-0.9l10,3.6
		c0.8,0.3,1.3,1.2,1,2C73.6,27.3,73,27.7,72.4,27.7z"/>
</g>
</svg>
