<?xml version="1.0" encoding="utf-8"?>
<!-- Generator: Adobe Illustrator 22.0.1, SVG Export Plug-In . SVG Version: 6.00 Build 0)  -->
<svg version="1.1" id="Слой_1" xmlns="http://www.w3.org/2000/svg" xmlns:xlink="http://www.w3.org/1999/xlink" x="0px" y="0px"
	 viewBox="0 0 102.4 102.5" style="enable-background:new 0 0 102.4 102.5;" xml:space="preserve">
<style type="text/css">
	.st0{opacity:0.4;}
	.st1{opacity:0.4;fill:#C5F65C;enable-background:new    ;}
	.st2{fill:none;stroke:#C5F65C;stroke-width:3;}
	.st3{clip-path:url(#SVGID_2_);}
	.st4{fill:#C5F65C;}
</style>
<g class="st0">
	<path class="st1" d="M49.2,100c26,0,47-21,47-47s-21-47-47-47s-47,21-47,47S23.2,100,49.2,100z"/>
</g>
<circle class="st2" cx="50.6" cy="51.5" r="47"/>
<g>
	<g>
		<defs>
			<rect id="SVGID_1_" x="26.1" y="21" width="50" height="61"/>
		</defs>
		<clipPath id="SVGID_2_">
			<use xlink:href="#SVGID_1_"  style="overflow:visible;"/>
		</clipPath>
		<g class="st3">
			<path class="st4" d="M51.4,82c-4.8,0-9.3-1.9-12.6-5.2c-0.6-0.6-0.6-1.6,0-2.2s1.6-0.6,2.2,0c2.8,2.8,6.5,4.3,10.4,4.3
				s7.6-1.5,10.4-4.3c0.6-0.6,1.6-0.6,2.2,0c0.6,0.6,0.6,1.6,0,2.2C60.7,80.2,56.2,82,51.4,82z"/>
			<path class="st4" d="M66.5,34.2c-5.3,0-9.6,4.3-9.6,9.6s4.3,9.6,9.6,9.6s9.6-4.3,9.6-9.6S71.8,34.2,66.5,34.2z M66.5,50.2
				c-3.6,0-6.5-2.9-6.5-6.4s2.9-6.4,6.5-6.4c3.6,0,6.5,2.9,6.5,6.4C72.9,47.3,70,50.2,66.5,50.2z"/>
			<path class="st4" d="M35.7,34.2c-5.3,0-9.6,4.3-9.6,9.6s4.3,9.6,9.6,9.6c5.3,0,9.6-4.3,9.6-9.6S41,34.2,35.7,34.2z M35.7,50.2
				c-3.6,0-6.5-2.9-6.5-6.4c0-3.6,2.9-6.4,6.5-6.4s6.5,2.9,6.5,6.4S39.3,50.2,35.7,50.2z"/>
			<path class="st4" d="M66.5,45.5c-0.9,0-1.6-0.7-1.6-1.6v-0.2c0-0.9,0.7-1.6,1.6-1.6c0.9,0,1.6,0.7,1.6,1.6v0.2
				C68.1,44.8,67.3,45.5,66.5,45.5z"/>
			<path class="st4" d="M35.7,45.5c-0.9,0-1.6-0.7-1.6-1.6v-0.2c0-0.9,0.7-1.6,1.6-1.6s1.6,0.7,1.6,1.6v0.2
				C37.3,44.8,36.6,45.5,35.7,45.5z"/>
			<path class="st4" d="M30.7,27.7c-0.7,0-1.3-0.4-1.5-1c-0.3-0.8,0.1-1.7,1-2l10-3.6c0.8-0.3,1.7,0.1,2,0.9s-0.1,1.7-1,2l-10,3.6
				C31.1,27.7,30.9,27.7,30.7,27.7z"/>
			<path class="st4" d="M71.5,27.7c-0.2,0-0.4,0-0.5-0.1L61,24c-0.8-0.3-1.3-1.2-1-2s1.2-1.2,2-0.9l10,3.6c0.8,0.3,1.2,1.2,1,2
				C72.7,27.3,72.1,27.7,71.5,27.7z"/>
		</g>
	</g>
</g>
</svg>
