<?xml version="1.0" encoding="utf-8"?>
<!-- Generator: Adobe Illustrator 22.0.1, SVG Export Plug-In . SVG Version: 6.00 Build 0)  -->
<svg version="1.1" id="Слой_1" xmlns="http://www.w3.org/2000/svg" xmlns:xlink="http://www.w3.org/1999/xlink" x="0px" y="0px"
	 viewBox="0 0 102.7 102.8" style="enable-background:new 0 0 102.7 102.8;" xml:space="preserve">
<style type="text/css">
	.st0{opacity:0.4;}
	.st1{opacity:0.4;fill:#00E355;enable-background:new    ;}
	.st2{fill:none;stroke:#00E355;stroke-width:3;}
	.st3{clip-path:url(#SVGID_2_);}
	.st4{fill:#00E355;}
</style>
<g class="st0">
	<path class="st1" d="M50.9,97.2c25.6,0,46.4-20.8,46.4-46.4S76.5,4.4,50.9,4.4S4.5,25.2,4.5,50.8S25.3,97.2,50.9,97.2z"/>
</g>
<circle class="st2" cx="51" cy="50.9" r="47"/>
<g>
	<g>
		<defs>
			<rect id="SVGID_1_" x="27.5" y="21.4" width="47" height="59"/>
		</defs>
		<clipPath id="SVGID_2_">
			<use xlink:href="#SVGID_1_"  style="overflow:visible;"/>
		</clipPath>
		<g class="st3">
			<path class="st4" d="M51,80.4c-13,0-23.5-10.4-23.5-23.2c0-0.7,0.6-1.3,1.3-1.3c0.7,0,1.3,0.6,1.3,1.3c0,11.4,9.4,20.6,20.9,20.6
				s20.9-9.3,20.9-20.6c0-0.7,0.6-1.3,1.3-1.3c0.7,0,1.3,0.6,1.3,1.3C74.5,70,64,80.4,51,80.4z"/>
			<path class="st4" d="M30.4,42.5c-0.1,0-0.3,0-0.5-0.1c-0.7-0.3-1-1-0.8-1.7c0.1-0.2,1.9-4.8,7.9-4.8s7.9,4.6,8,4.8
				c0.3,0.7,0,1.4-0.7,1.7s-1.4,0-1.7-0.7c-0.1-0.2-1.4-3.1-5.6-3.1s-5.4,3.1-5.5,3.1C31.4,42.1,30.9,42.5,30.4,42.5z"/>
			<path class="st4" d="M71.8,42.5c-0.5,0-1-0.3-1.2-0.8c-0.1-0.2-1.4-3.1-5.6-3.1c-4.1,0-5.4,3-5.5,3.1c-0.3,0.7-1,1-1.7,0.7
				s-1-1-0.7-1.7c0.1-0.2,1.9-4.8,7.9-4.8s7.9,4.6,8,4.8c0.3,0.7-0.1,1.4-0.7,1.7C72.1,42.4,72,42.5,71.8,42.5z"/>
			<path class="st4" d="M69.6,29.3c-0.2,0-0.5-0.1-0.7-0.2l-9.1-5.4c-0.6-0.4-0.8-1.2-0.5-1.8c0.4-0.6,1.2-0.8,1.8-0.4l9.1,5.4
				c0.6,0.4,0.8,1.2,0.4,1.8C70.5,29.1,70,29.3,69.6,29.3z"/>
			<path class="st4" d="M32.6,29.3c-0.4,0-0.9-0.2-1.1-0.6c-0.4-0.6-0.2-1.4,0.4-1.8l9.1-5.4c0.6-0.4,1.4-0.2,1.8,0.4
				s0.2,1.4-0.4,1.8l-9.1,5.4C33.1,29.3,32.8,29.3,32.6,29.3z"/>
		</g>
	</g>
</g>
</svg>
