<?xml version="1.0" encoding="utf-8"?>
<!-- Generator: Adobe Illustrator 22.0.1, SVG Export Plug-In . SVG Version: 6.00 Build 0)  -->
<svg version="1.1" id="Слой_1" xmlns="http://www.w3.org/2000/svg" xmlns:xlink="http://www.w3.org/1999/xlink" x="0px" y="0px"
	 viewBox="0 0 102.2 102.9" style="enable-background:new 0 0 102.2 102.9;" xml:space="preserve">
<style type="text/css">
	.st0{fill:none;stroke:#00AB23;stroke-width:3;}
	.st1{opacity:0.4;}
	.st2{opacity:0.4;fill:#00AB23;enable-background:new    ;}
	.st3{fill:#00AB23;}
</style>
<circle class="st0" cx="49.8" cy="51.4" r="47"/>
<g class="st1">
	<path class="st2" d="M49.8,98c25.7,0,46.6-20.8,46.6-46.5S75.6,4.9,49.8,4.9C24.1,4.9,3.3,25.7,3.3,51.4S24.1,98,49.8,98z"/>
</g>
<path class="st3" d="M58.4,71.9H43.2c-0.8,0-1.5,0.7-1.5,1.5c0,4.9,4.1,9,9.1,9s9.1-4,9.1-9C59.9,72.5,59.2,71.9,58.4,71.9z
	 M50.8,79.4c-2.9,0-5.3-2-5.9-4.6h11.9C56.1,77.4,53.7,79.4,50.8,79.4z"/>
<path class="st3" d="M69.9,38c-2.1,0-3.6,0.8-4.5,1.6C64.5,38.8,63,38,60.9,38c-4.1,0-6.6,2.8-6.6,7.4c0,8.4,10.4,11,10.8,11.1
	c0.1,0,0.2,0,0.4,0c0.1,0,0.2,0,0.4,0c0.4-0.1,10.8-2.7,10.8-11.1C76.5,40.8,74,38,69.9,38z M65.3,53.5c-1.6-0.5-8.2-2.8-8.2-8.2
	c0-2.9,1.2-4.4,3.7-4.4c2.3,0,3.2,1.5,3.2,1.6c0.3,0.5,0.8,0.8,1.3,0.8s1.1-0.3,1.3-0.8c0-0.1,0.9-1.6,3.2-1.6
	c2.4,0,3.7,1.5,3.7,4.4C73.5,50.7,66.9,53,65.3,53.5z"/>
<path class="st3" d="M40.6,38c-2.1,0-3.6,0.8-4.5,1.6c-0.9-0.8-2.4-1.6-4.5-1.6c-4.1,0-6.6,2.8-6.6,7.4c0,8.4,10.4,11,10.8,11.1
	c0.1,0,0.2,0,0.4,0c0.1,0,0.2,0,0.4,0c0.4-0.1,10.8-2.7,10.8-11.1C47.2,40.8,44.7,38,40.6,38z M36.1,53.5c-1.6-0.5-8.2-2.8-8.2-8.2
	c0-2.9,1.2-4.4,3.7-4.4c2.3,0,3.2,1.5,3.2,1.6c0.3,0.5,0.8,0.8,1.3,0.8s1.1-0.3,1.3-0.8c0-0.1,0.9-1.6,3.2-1.6
	c2.4,0,3.7,1.5,3.7,4.4C44.3,50.7,37.7,53,36.1,53.5z"/>
<path class="st3" d="M70.9,32.9c-0.2,0-0.4,0-0.6-0.1l-11.1-5.3c-0.7-0.3-1-1.2-0.7-1.9c0.4-0.7,1.2-1,2-0.7l11.1,5.3
	c0.7,0.3,1,1.2,0.7,1.9C71.9,32.6,71.4,32.9,70.9,32.9z"/>
<path class="st3" d="M30.5,32.9c-0.5,0-1.1-0.3-1.3-0.8c-0.4-0.7,0-1.6,0.7-1.9L41,24.9c0.7-0.3,1.6,0,2,0.7s0,1.6-0.7,1.9
	l-11.1,5.3C31,32.9,30.7,32.9,30.5,32.9z"/>
</svg>
