<?xml version="1.0" encoding="utf-8"?>
<!-- Generator: Adobe Illustrator 22.0.1, SVG Export Plug-In . SVG Version: 6.00 Build 0)  -->
<svg version="1.1" id="Слой_1" xmlns="http://www.w3.org/2000/svg" xmlns:xlink="http://www.w3.org/1999/xlink" x="0px" y="0px"
	 viewBox="0 0 98.7 97.8" style="enable-background:new 0 0 98.7 97.8;" xml:space="preserve">
<style type="text/css">
	.st0{opacity:0.4;}
	.st1{opacity:0.4;fill:#8D0205;enable-background:new    ;}
	.st2{fill:none;stroke:#8D0205;stroke-width:3;}
	.st3{clip-path:url(#SVGID_2_);}
	.st4{fill:#8D0205;}
</style>
<g class="st0">
	<path class="st1" d="M49.7,95.5c26,0,47-20.8,47-46.5s-21-46.5-47-46.5S2.7,23.3,2.7,49S23.7,95.5,49.7,95.5z"/>
</g>
<circle class="st2" cx="49.2" cy="49" r="47"/>
<g>
	<defs>
		<rect id="SVGID_1_" x="-12.3" y="-10.5" width="114" height="114"/>
	</defs>
	<clipPath id="SVGID_2_">
		<use xlink:href="#SVGID_1_"  style="overflow:visible;"/>
	</clipPath>
	<g class="st3">
		<path class="st4" d="M152.4,107.5c-20.3,0-36.7-16.5-36.7-36.7v-0.5h-0.8c-6.3,0-11.3-5.1-11.3-11.3v-5.2
			c0-6.3,5.1-11.3,11.3-11.3h0.8V25.7c0-6.4,3-12.5,8-16.5c-0.2-0.9-0.3-1.8-0.3-2.6c0-2.3,1.2-4.8,3.3-6.4l0.1-0.1l1.2-0.9
			c0.1-0.1,0.1-0.1,0.2-0.1c0.2-0.1,0.4-0.2,0.6-0.4c1.2-0.7,3-1.8,5.9-2.7c4.1-1.4,8.4-2.1,13.2-2.4c18.3-1,34.6,4.4,39.6,13.1
			c0.6,1,1.1,1.8,1.5,2.8c4.1,8.9,0.8,18.1,0.1,19.9v13h0.9c6.3,0,11.3,5.1,11.3,11.3v5.2c0,6.3-5.1,11.3-11.3,11.3h-0.9v0.5
			C189.2,91,172.7,107.5,152.4,107.5z M118.4,68.9v1.9c0,18.8,15.3,34,34,34c18.8,0,34-15.3,34-34V59.3h-2.4c-0.4,0-0.7-0.2-1-0.4
			c-0.3-0.3-0.4-0.6-0.4-1c0-0.2,0.2-15.7-1-20.5c-1.1-4.4-4.2-6.1-4.3-6.2c-0.3-0.2-0.5-0.5-0.6-0.8c-0.1-0.4-0.1-0.8,0.2-1
			c0-0.1,1.8-3.2,1.9-6.2c0-0.5-1.9-1.6-4.5-2.3c-2.9-0.6-5.2-0.6-5.2-0.6c0,0,0,0-0.1,0H141c-4.1,0-7.6-0.7-10.4-2.1
			c-0.5-0.2-0.9-0.5-1.4-0.8c-1.2,1.5-3.1,3.9-3,5.8c0,3,1.9,6.1,1.9,6.2c0.2,0.3,0.3,0.7,0.2,1.1c-0.1,0.4-0.3,0.6-0.6,0.9
			c-0.1,0.1-3.2,1.8-4.3,6.2c-1.2,4.8-1,20.4-1,20.5c0,0.4-0.2,0.7-0.4,1c-0.3,0.3-0.6,0.4-1,0.4h-2.4L118.4,68.9z M189.2,67.6h0.8
			c4.8,0,8.6-3.9,8.6-8.6v-5.2c0-4.8-3.9-8.6-8.6-8.6h-0.8V67.6z M114.9,45.1c-4.8,0-8.6,3.9-8.6,8.6v5.2c0,4.8,3.9,8.6,8.6,8.6h0.8
			V45.1H114.9z M185.5,56.6h1V29.5c-1.2-2.5-3-4.4-5-5.7c-0.2,2.4-1.1,4.6-1.7,5.9c1.4,1.1,3.6,3.3,4.5,7.1
			C185.4,41.1,185.5,52.6,185.5,56.6z M118.4,56.6h1c0-4,0.1-15.5,1.1-19.8c1-3.8,3.2-6,4.5-7.1c-0.7-1.4-1.7-3.9-1.7-6.4
			c0-2.9,2.3-5.9,3.7-7.6c-1-1.1-1.9-2.3-2.5-3.7c-3.9,3.5-6.2,8.4-6.2,13.7V56.6z M169.3,17.5c1.8,0,12.7,0.3,18.2,8.3
			c0.2-0.7,0.4-1.6,0.5-2.5c-1.6-1.6-7.3-6.6-15.8-8.2c-5.9-1.1-13-0.7-19.8-0.3c-5.1,0.3-10.3,0.6-14.9,0.3
			c-4.5-0.3-7.6-1.5-9.7-2.8c1,1.5,2.3,2.7,3.9,3.5c2.5,1.2,5.6,1.8,9.2,1.8H169C169,17.5,169.2,17.5,169.3,17.5z M163.2,11.7
			c3.3,0,6.5,0.2,9.6,0.8c7.5,1.4,12.9,5.2,15.7,7.6c0.1-1.2,0-2.4-0.2-3.7c-3.8-3.8-10.4-6.4-19.3-7.6c-4.7-0.6-10.1,0.1-15.8,0.9
			c-5.7,0.8-11.7,1.6-17,0.9c-5.9-0.8-8.6-2.9-9.9-4.8c-0.1,0.3-0.1,0.7-0.1,1c0,0.1,0,0.3,0,0.4c0.4,0.9,2.9,4.8,11.6,5.5
			c4.4,0.3,9.3,0.1,14.5-0.3C155.9,11.9,159.6,11.7,163.2,11.7z M165,5.7c1.5,0,2.9,0.1,4.3,0.3c7.6,1,13.7,3.1,17.9,5.9
			c-0.2-0.4-0.3-0.9-0.5-1.3c-0.4-0.8-0.8-1.6-1.3-2.5c0,0,0-0.1-0.1-0.1c-4.5-7.7-20.1-12.6-37.1-11.7c-4.5,0.3-8.6,1-12.5,2.3
			h-0.1c-2.6,0.8-4.3,1.8-5.3,2.4c-0.3,0.2-0.5,0.3-0.7,0.4l-1.2,0.8c-0.2,0.1-0.3,0.3-0.4,0.4c0.2,1.1,1.3,4.1,8.5,5
			c5,0.6,10.7-0.1,16.3-0.9C156.8,6.3,161.1,5.7,165,5.7z M141.1,83.9c-5.3,0-9-2.9-9.1-3.1c-0.6-0.5-0.6-1.3-0.2-1.9
			c0.5-0.6,1.3-0.6,1.9-0.2c0.1,0.1,4.1,3.2,9.4,2.3c3.8-0.6,5.5-2,7.2-3.4c1.9-1.6,4.2-3.5,9.4-4.2c7.9-1.1,12,3.6,13.4,5.6
			l0.6-0.4c0.6-0.4,1.5-0.2,1.9,0.4c0.4,0.6,0.2,1.5-0.4,1.9l-3.2,2.1c-0.6,0.4-1.5,0.2-1.9-0.4c-0.4-0.6-0.2-1.5,0.4-1.9l0.4-0.3
			c-1-1.5-4.3-5.2-10.8-4.3c-4.5,0.6-6.2,2.1-8.1,3.6c-1.8,1.5-3.9,3.2-8.4,4C142.7,83.8,141.9,83.9,141.1,83.9z M166.7,61.3
			c-3.6,0-6.8-2.1-8.3-5.3c-0.3-0.6-0.1-1.4,0.5-1.7l13.2-7.6c0.6-0.3,1.4-0.2,1.8,0.4c1.1,1.6,1.7,3.3,1.7,5.2
			C175.7,57.3,171.6,61.3,166.7,61.3z M161.5,55.9c1.2,1.7,3.1,2.7,5.2,2.7c3.5,0,6.3-2.8,6.3-6.3c0-0.9-0.2-1.8-0.6-2.6l-4.8,2.8
			c0.3,0.3,0.4,0.6,0.4,1v0.1c0,0.8-0.6,1.4-1.3,1.4c-0.7,0-1.2-0.5-1.4-1.1L161.5,55.9z M139.3,61.3c-5,0-9-4.1-9-9
			c0-1.9,0.6-3.7,1.7-5.2c0.4-0.5,1.2-0.7,1.8-0.4l13.2,7.6c0.6,0.3,0.9,1.1,0.5,1.7C146.1,59.2,142.9,61.3,139.3,61.3z M133.6,49.7
			c-0.4,0.8-0.6,1.7-0.6,2.6c0,3.5,2.8,6.3,6.3,6.3c2.1,0,4-1,5.2-2.7l-3.8-2.2c-0.1,0.6-0.6,1.1-1.4,1.1c-0.8,0-1.3-0.6-1.3-1.4
			v-0.1c0-0.4,0.2-0.7,0.4-1L133.6,49.7z M158.9,52.1c-0.4,0-0.8-0.2-1.1-0.5c-0.4-0.6-0.3-1.5,0.3-1.9l12.5-9.3
			c0.6-0.4,1.5-0.3,1.9,0.3c0.4,0.6,0.3,1.5-0.3,1.9l-12.5,9.3C159.5,52,159.3,52.1,158.9,52.1z M147.1,52.1c-0.3,0-0.5-0.1-0.8-0.3
			l-12.5-9.2c-0.6-0.4-0.7-1.3-0.3-1.9c0.4-0.6,1.3-0.7,1.9-0.3l12.5,9.3c0.6,0.4,0.7,1.3,0.3,1.9C147.9,51.9,147.5,52.1,147.1,52.1
			z M36.5,71.6c-5.3,0-9-2.9-9.1-3.1c-0.6-0.5-0.6-1.3-0.2-1.9c0.5-0.6,1.3-0.6,1.9-0.2c0.1,0.1,4.1,3.2,9.5,2.3
			c3.8-0.6,5.5-2,7.2-3.4c1.9-1.6,4.2-3.5,9.5-4.2c7.9-1.1,12,3.6,13.4,5.6l0.6-0.4c0.6-0.4,1.5-0.2,1.9,0.4
			c0.4,0.6,0.2,1.5-0.4,1.9l-3.2,2.1c-0.6,0.4-1.5,0.2-1.9-0.4c-0.4-0.6-0.2-1.5,0.4-1.9l0.4-0.3c-1-1.5-4.3-5.2-10.8-4.3
			c-4.5,0.6-6.2,2.1-8.1,3.6c-1.8,1.5-3.9,3.2-8.4,4C38.1,71.6,37.3,71.6,36.5,71.6z M62,49.1c-3.6,0-6.8-2.1-8.3-5.3
			c-0.3-0.6-0.1-1.4,0.5-1.7l13.2-7.6c0.6-0.3,1.4-0.2,1.8,0.4c1.1,1.6,1.7,3.3,1.7,5.2C71,45,66.9,49.1,62,49.1z M56.8,43.7
			c1.2,1.7,3.1,2.7,5.2,2.7c3.5,0,6.3-2.8,6.3-6.3c0-0.9-0.2-1.8-0.6-2.6l-4.8,2.8c0.3,0.3,0.4,0.6,0.4,1v0.1c0,0.8-0.6,1.4-1.4,1.4
			c-0.7,0-1.2-0.5-1.4-1.1L56.8,43.7z M34.7,49.1c-5,0-9-4.1-9-9c0-1.9,0.6-3.7,1.7-5.2c0.4-0.5,1.2-0.7,1.8-0.4L42.4,42
			c0.6,0.3,0.9,1.1,0.5,1.7C41.5,47,38.2,49.1,34.7,49.1z M29,37.5c-0.4,0.8-0.6,1.7-0.6,2.6c0,3.5,2.8,6.3,6.3,6.3
			c2.1,0,4-1,5.2-2.7L36,41.5c-0.1,0.6-0.6,1.1-1.3,1.1c-0.8,0-1.4-0.6-1.4-1.4v-0.1c0-0.4,0.2-0.7,0.4-1L29,37.5z M54.3,39.8
			c-0.4,0-0.8-0.2-1.1-0.5c-0.4-0.6-0.3-1.5,0.3-1.9L66,28.1c0.6-0.4,1.5-0.3,1.9,0.3c0.4,0.6,0.3,1.5-0.3,1.9l-12.5,9.3
			C54.8,39.7,54.6,39.8,54.3,39.8z M42.4,39.8c-0.3,0-0.5-0.1-0.8-0.3l-12.5-9.2c-0.6-0.4-0.7-1.3-0.3-1.9c0.4-0.6,1.3-0.7,1.9-0.3
			l12.5,9.3c0.6,0.4,0.7,1.3,0.3,1.9C43.2,39.6,42.8,39.8,42.4,39.8z"/>
	</g>
</g>
</svg>
