<svg width="97" height="97" viewBox="0 0 97 97" fill="none" xmlns="http://www.w3.org/2000/svg">
<g opacity="0.4">
<path opacity="0.4" d="M47.5 96.5183C73.7335 96.5183 95 75.2518 95 49.0183C95 22.7848 73.7335 1.51831 47.5 1.51831C21.2665 1.51831 0 22.7848 0 49.0183C0 75.2518 21.2665 96.5183 47.5 96.5183Z" fill="#AE0D07"/>
</g>
<circle cx="48.5" cy="48.5" r="47" stroke="#AE0D07" stroke-width="3"/>
<g clip-path="url(#clip0)">
<path d="M27.8893 69C27.3052 69 26.732 68.6888 26.4508 68.1493C26.0615 67.392 26.3751 66.4687 27.1755 66.0848C27.5324 65.9188 36.0331 61.9247 48.1136 61.9247C60.2373 61.9247 67.862 65.9499 68.1865 66.1159C68.9543 66.5309 69.2355 67.4646 68.8029 68.2116C68.3703 68.9481 67.397 69.2179 66.6183 68.8029C66.5534 68.7614 59.3505 64.9955 48.1136 64.9955C36.7793 64.9955 28.6788 68.7925 28.5922 68.834C28.3759 68.9481 28.1272 69 27.8893 69Z" fill="#AE0D07"/>
<path d="M63.6117 47.5354C57.3497 47.5354 52.245 42.6595 52.2233 36.6527C52.2233 35.9887 52.2882 35.3144 52.4072 34.6401C52.537 33.9865 53.0777 33.4781 53.7699 33.3951L72.2205 31.0194C72.9127 30.926 73.5724 31.2788 73.8752 31.8805C74.6107 33.3536 74.9892 34.9305 75 36.5697C75.0216 42.5972 69.9385 47.5147 63.6549 47.5354C63.6333 47.5354 63.6225 47.5354 63.6117 47.5354Z" fill="#AE0D07"/>
<path d="M55.4246 36.2792C55.4246 36.3933 55.4138 36.5178 55.4138 36.6319C55.4354 40.9477 59.1017 44.4542 63.6008 44.4542C63.6117 44.4542 63.6225 44.4542 63.6333 44.4542C68.1432 44.4335 71.8095 40.9062 71.7879 36.5697C71.7879 35.7605 71.6581 34.972 71.3986 34.2147L55.4246 36.2792Z" fill="#DCC2C1"/>
<path d="M32.3884 47.5354C32.3775 47.5354 32.3559 47.5354 32.3451 47.5354C26.0615 47.5147 20.9784 42.5868 21 36.5697C21.0108 34.9305 21.3894 33.3536 22.1248 31.8805C22.4276 31.2788 23.0873 30.926 23.7795 31.0194L42.2301 33.3951C42.9223 33.4885 43.4631 33.9865 43.5928 34.6401C43.7226 35.304 43.7875 35.9887 43.7767 36.6527C43.7551 42.6595 38.6503 47.5354 32.3884 47.5354Z" fill="#AE0D07"/>
<path d="M24.5906 34.2251C24.3419 34.9824 24.2121 35.7709 24.2013 36.5801C24.1797 40.9062 27.846 44.4438 32.3559 44.4646C32.3667 44.4646 32.3775 44.4646 32.3884 44.4646C36.8875 44.4646 40.5538 40.958 40.5754 36.6423C40.5754 36.5282 40.5754 36.4037 40.5646 36.2896L24.5906 34.2251Z" fill="#DCC2C1"/>
<path d="M63.6116 39.4953C62.7248 39.4953 62.011 38.8106 62.011 37.9599V37.8043C62.011 36.9536 62.7248 36.2689 63.6116 36.2585C63.6116 36.2585 63.6116 36.2585 63.6225 36.2585C64.5093 36.2585 65.2231 36.9432 65.2231 37.7939V37.9495C65.2123 38.8002 64.4985 39.4953 63.6116 39.4953Z" fill="#AE0D07"/>
<path d="M32.3884 39.4953C31.5015 39.4953 30.7877 38.8002 30.7877 37.9495V37.7939C30.7877 36.9432 31.5123 36.2585 32.3884 36.2585C32.3884 36.2585 32.3884 36.2585 32.3992 36.2585C33.286 36.2585 33.9998 36.9536 33.9998 37.8043V37.9599C33.989 38.8106 33.2752 39.4953 32.3884 39.4953Z" fill="#AE0D07"/>
<path d="M56.9604 27.2328C56.1384 27.2328 55.4462 26.6311 55.3705 25.8322C55.284 24.9919 55.9329 24.245 56.8198 24.162L70.1008 23.0104C70.9876 22.9274 71.7663 23.5602 71.842 24.4006C71.9177 25.2409 71.2688 25.9982 70.3928 26.0708L57.1118 27.2224C57.0577 27.2328 57.0144 27.2328 56.9604 27.2328Z" fill="#AE0D07"/>
<path d="M39.0288 27.2328C38.9748 27.2328 38.9315 27.2328 38.8774 27.2224L25.6072 26.0708C24.7204 25.9878 24.0715 25.2409 24.158 24.4006C24.2337 23.5602 25.0124 22.9274 25.8993 23.0104L39.1803 24.1723C40.0563 24.245 40.7052 24.9919 40.6295 25.8426C40.5538 26.6311 39.8508 27.2328 39.0288 27.2328Z" fill="#AE0D07"/>
</g>
<defs>
<clipPath id="clip0">
<rect width="54" height="46" fill="white" transform="translate(21 23)"/>
</clipPath>
</defs>
</svg>
