<svg width="97" height="97" viewBox="0 0 97 97" fill="none" xmlns="http://www.w3.org/2000/svg">
<g opacity="0.4">
<path opacity="0.4" d="M47.5 97C73.7335 97 95 75.7335 95 49.5C95 23.2665 73.7335 2 47.5 2C21.2665 2 0 23.2665 0 49.5C0 75.7335 21.2665 97 47.5 97Z" fill="#079D26"/>
</g>
<path d="M49.0447 79C37.2494 79 27.6529 69.4568 27.6529 57.7272C27.6529 57.0387 28.2117 56.4951 28.8919 56.4951H69.1853C69.8777 56.4951 70.4244 57.0507 70.4244 57.7272C70.4244 61.3754 69.5011 64.8061 67.8734 67.8019C67.8369 67.8865 67.7883 67.971 67.7398 68.0435C64.0833 74.5787 57.0742 79 49.0447 79ZM33.6052 68.5629C37.0308 73.3707 42.6672 76.5115 49.0325 76.5115C55.3979 76.5115 61.0343 73.3707 64.4599 68.5629H33.6052ZM32.1232 66.0986H65.9662C67.0595 63.9242 67.7397 61.5082 67.9098 58.9715H30.1796C30.3496 61.5203 31.0299 63.9242 32.1232 66.0986ZM37.0186 44.9104C36.8243 44.9104 36.6178 44.8621 36.4355 44.7654L30.9934 41.9146L25.5513 44.7654C25.1262 44.9829 24.6281 44.9466 24.2394 44.6688C23.8507 44.391 23.6685 43.9198 23.7414 43.4608L24.7861 37.4329L20.3765 33.1687C20.0364 32.8425 19.9149 32.3472 20.0607 31.9003C20.2064 31.4533 20.5951 31.1272 21.0689 31.0547L27.1548 30.1729L29.8759 24.6886C30.0824 24.2658 30.5197 24 30.9934 24C31.4672 24 31.9045 24.2658 32.111 24.6886L34.8321 30.1729L40.918 31.0547C41.3917 31.1272 41.7805 31.4533 41.9262 31.9003C42.072 32.3472 41.9505 32.8425 41.6104 33.1687L37.2008 37.4329L38.2455 43.4729C38.3306 43.9319 38.1362 44.403 37.7475 44.6809C37.5288 44.8379 37.2737 44.9104 37.0186 44.9104ZM30.9934 39.2932C31.1878 39.2932 31.3943 39.3415 31.5765 39.4382L35.3666 41.4193L34.6377 37.2155C34.5648 36.8168 34.6984 36.4061 34.99 36.1162L38.0633 33.1445L33.8238 32.5284C33.423 32.468 33.0707 32.2144 32.8885 31.852L30.9934 28.0347L29.0984 31.852C28.9162 32.2144 28.5639 32.468 28.1631 32.5284L23.9236 33.1445L26.9969 36.1162C27.2884 36.4061 27.4221 36.8047 27.3492 37.2155L26.6203 41.4193L30.4104 39.4382C30.5926 39.3415 30.7991 39.2932 30.9934 39.2932ZM71.0317 44.9104C70.8374 44.9104 70.6309 44.8621 70.4487 44.7654L65.0066 41.9146L59.5645 44.7654C59.1393 44.9829 58.6413 44.9466 58.2525 44.6688C57.8638 44.391 57.6816 43.9198 57.7545 43.4608L58.7992 37.4329L54.3896 33.1687C54.0495 32.8425 53.928 32.3472 54.0738 31.9003C54.2195 31.4533 54.6083 31.1272 55.082 31.0547L61.1679 30.1729L63.889 24.6886C64.0955 24.2658 64.5328 24 65.0066 24C65.4803 24 65.9176 24.2658 66.1241 24.6886L68.8452 30.1729L74.9311 31.0547C75.4049 31.1272 75.7936 31.4533 75.9393 31.9003C76.0851 32.3472 75.9636 32.8425 75.6235 33.1687L71.214 37.4329L72.2586 43.4729C72.3437 43.9319 72.1493 44.403 71.7606 44.6809C71.5419 44.8379 71.2868 44.9104 71.0317 44.9104ZM65.0066 39.2932C65.2009 39.2932 65.4074 39.3415 65.5896 39.4382L69.3797 41.4193L68.6508 37.2155C68.5779 36.8168 68.7116 36.4061 69.0031 36.1162L72.0764 33.1445L67.8369 32.5284C67.4361 32.468 67.0838 32.2144 66.9016 31.852L65.0066 28.0347L63.1115 31.852C62.9293 32.2144 62.577 32.468 62.1762 32.5284L57.9367 33.1445L61.01 36.1162C61.3016 36.4061 61.4352 36.8047 61.3623 37.2155L60.6334 41.4193L64.4235 39.4382C64.6057 39.3415 64.8122 39.2932 65.0066 39.2932Z" fill="#079D26"/>
<circle cx="48.5" cy="48.5" r="47" stroke="#079D26" stroke-width="3"/>
</svg>
