<svg width="97" height="97" viewBox="0 0 97 97" fill="none" xmlns="http://www.w3.org/2000/svg">
<g opacity="0.4">
<path opacity="0.4" d="M48.2406 95C73.9218 95 94.7406 74.1812 94.7406 48.5C94.7406 22.8188 73.9218 2 48.2406 2C22.5594 2 1.7406 22.8188 1.7406 48.5C1.7406 74.1812 22.5594 95 48.2406 95Z" fill="#FE5A59"/>
</g>
<circle cx="48.5" cy="48.5" r="47" stroke="#FE5A59" stroke-width="3"/>
<g clip-path="url(#clip0)">
<path d="M58.0951 74H39.8854C38.9955 74 38.2787 73.2905 38.2787 72.4097C38.2787 71.529 38.9955 70.8195 39.8854 70.8195H58.0951C58.985 70.8195 59.7019 71.529 59.7019 72.4097C59.7019 73.2905 58.9768 74 58.0951 74Z" fill="#FE5A59"/>
<path d="M65.2883 47.194C59.4876 47.194 54.6839 42.5212 54.5767 36.7718C54.5685 36.3477 54.7333 35.9318 55.0382 35.6301C55.343 35.3283 55.755 35.1571 56.1835 35.1571H74.3932C74.8217 35.1571 75.2337 35.3283 75.5385 35.6301C75.8434 35.9318 76.0082 36.3477 76 36.7718C75.8928 42.5212 71.0891 47.194 65.2883 47.194Z" fill="#FE5A59"/>
<path d="M58.0045 38.3376C58.8038 41.5834 61.7865 44.0136 65.2884 44.0136C68.7903 44.0136 71.7731 41.5834 72.5723 38.3376H66.8869C66.8952 38.3865 66.8952 38.4436 66.8952 38.4926V38.6475C66.8952 39.5283 66.1783 40.2378 65.2884 40.2378C64.3985 40.2378 63.6817 39.5283 63.6817 38.6475V38.4926C63.6817 38.4355 63.6817 38.3865 63.6899 38.3376H58.0045Z" fill="#E9CECE"/>
<path d="M31.7116 47.194C25.9108 47.194 21.1071 42.5212 21 36.7718C20.9917 36.3477 21.1565 35.9318 21.4614 35.6301C21.7663 35.3283 22.1783 35.1571 22.6067 35.1571H40.8165C41.2449 35.1571 41.6569 35.3283 41.9618 35.6301C42.2584 35.9318 42.4232 36.3477 42.415 36.7718C42.3161 42.5212 37.5123 47.194 31.7116 47.194Z" fill="#FE5A59"/>
<path d="M24.4277 38.3376C25.227 41.5834 28.2098 44.0136 31.7116 44.0136C35.2135 44.0136 38.1963 41.5834 38.9955 38.3376H33.3101C33.3184 38.3865 33.3184 38.4436 33.3184 38.4926V38.6475C33.3184 39.5283 32.6015 40.2378 31.7116 40.2378C30.8218 40.2378 30.1049 39.5283 30.1049 38.6475V38.4926C30.1049 38.4355 30.1049 38.3865 30.1131 38.3376H24.4277Z" fill="#E9CECE"/>
<path d="M74.1296 32.1805H56.4472C55.5573 32.1805 54.8405 31.471 54.8405 30.5903C54.8405 29.7095 55.5573 29 56.4472 29H74.1296C75.0195 29 75.7363 29.7095 75.7363 30.5903C75.7363 31.471 75.0195 32.1805 74.1296 32.1805Z" fill="#FE5A59"/>
<path d="M40.7094 32.1805H23.027C22.1371 32.1805 21.4202 31.471 21.4202 30.5903C21.4202 29.7095 22.1453 29 23.027 29H40.7094C41.5993 29 42.3161 29.7095 42.3161 30.5903C42.3161 31.471 41.5993 32.1805 40.7094 32.1805Z" fill="#FE5A59"/>
</g>
<defs>
<clipPath id="clip0">
<rect width="55" height="45" fill="white" transform="translate(21 29)"/>
</clipPath>
</defs>
</svg>
