<svg width="94" height="94" viewBox="0 0 94 94" fill="none" xmlns="http://www.w3.org/2000/svg">
<g opacity="0.4">
<path opacity="0.4" d="M47 92.5649C72.1648 92.5649 92.5649 72.1648 92.5649 47C92.5649 21.8352 72.1648 1.43512 47 1.43512C21.8352 1.43512 1.43512 21.8352 1.43512 47C1.43512 72.1648 21.8352 92.5649 47 92.5649Z" fill="#FF8353"/>
</g>
<circle cx="47" cy="47" r="45.5" stroke="#FF8353" stroke-width="3"/>
<g clip-path="url(#clip0)">
<path d="M55.3876 70.7422H39.2162C38.3677 70.7422 37.679 70.0644 37.679 69.2292C37.679 68.394 38.3677 67.7162 39.2162 67.7162H55.3876C56.2361 67.7162 56.9248 68.394 56.9248 69.2292C56.9248 70.0644 56.2361 70.7422 55.3876 70.7422Z" fill="#FF8353"/>
<path d="M63.6146 43.1448C56.4758 43.1448 54.1208 40.2398 53.8749 39.907C53.3768 39.2291 53.5244 38.285 54.2131 37.7948C54.9017 37.3046 55.8609 37.4498 56.359 38.1277C56.359 38.1277 58.0991 40.1188 63.6146 40.1188C69.1423 40.1188 70.8763 38.1095 70.8947 38.0914C71.3928 37.4135 72.3458 37.2864 73.0283 37.7767C73.717 38.2669 73.8523 39.2291 73.3542 39.907C73.1083 40.2338 70.7533 43.1448 63.6146 43.1448Z" fill="#FF8353"/>
<path d="M32.3234 43.1448C25.1846 43.1448 22.8296 40.2398 22.5837 39.907C22.0856 39.2291 22.2332 38.285 22.9219 37.7948C23.6105 37.3046 24.5697 37.4498 25.0678 38.1277C25.0678 38.1277 26.8079 40.1188 32.3234 40.1188C37.8573 40.1188 39.5851 38.1095 39.6035 38.0914C40.1016 37.4135 41.0546 37.2864 41.7371 37.7767C42.4258 38.2669 42.5611 39.2291 42.063 39.907C41.8171 40.2338 39.4621 43.1448 32.3234 43.1448Z" fill="#FF8353"/>
<path d="M71.8356 32.3661C71.8171 32.3661 71.7925 32.3661 71.7741 32.3661C71.5527 32.36 66.2832 32.124 61.0137 29.9513C55.7811 27.7968 54.3484 25.9872 54.1147 25.6483C53.6413 24.9583 53.8196 24.0142 54.5267 23.5482C55.2277 23.0761 56.1869 23.2577 56.6603 23.9476C56.6603 23.9476 57.8348 25.3578 62.2004 27.1613C66.9596 29.1222 71.8479 29.34 71.897 29.34C72.7456 29.3763 73.4035 30.0784 73.3728 30.9136C73.342 31.7246 72.6595 32.3661 71.8356 32.3661Z" fill="#FF8353"/>
<path d="M23.8258 32.3662C23.008 32.3662 22.3255 31.7308 22.2886 30.9137C22.2517 30.0786 22.9158 29.3765 23.7643 29.3402C23.8135 29.3402 28.7202 29.1163 33.4609 27.1615C37.8635 25.3458 39.0194 23.9236 39.0317 23.9115C39.5052 23.2216 40.4521 23.0582 41.1531 23.5302C41.854 23.9962 42.0262 24.9585 41.5466 25.6484C41.3129 25.9874 39.8803 27.7969 34.6476 29.9515C29.3781 32.1242 24.1086 32.3541 23.8873 32.3662C23.8688 32.3602 23.8442 32.3662 23.8258 32.3662Z" fill="#FF8353"/>
</g>
<defs>
<clipPath id="clip0">
<rect width="51.3608" height="47.4845" fill="white" transform="translate(22.2886 23.2577)"/>
</clipPath>
</defs>
</svg>
