<svg width="97" height="97" viewBox="0 0 97 97" fill="none" xmlns="http://www.w3.org/2000/svg">
<g opacity="0.4">
<path opacity="0.4" d="M48.5 96.1479C74.7335 96.1479 96 74.8815 96 48.6479C96 22.4144 74.7335 1.14795 48.5 1.14795C22.2665 1.14795 1 22.4144 1 48.6479C1 74.8815 22.2665 96.1479 48.5 96.1479Z" fill="#FFB800"/>
</g>
<circle cx="48.5" cy="48.5" r="47" stroke="#FFB800" stroke-width="3"/>
<g clip-path="url(#clip0)">
<path d="M59.2915 78C58.9109 78 58.5303 77.8506 58.2425 77.561C55.6247 74.9272 52.1529 73.4795 48.4582 73.4795C44.7636 73.4795 41.2917 74.9272 38.6739 77.561C38.0984 78.1401 37.1515 78.1401 36.5759 77.561C36.0004 76.982 36.0004 76.0293 36.5759 75.4502C39.7507 72.256 43.9652 70.5001 48.4582 70.5001C52.9512 70.5001 57.1657 72.256 60.3405 75.4502C60.9161 76.0293 60.9161 76.982 60.3405 77.561C60.0527 77.8599 59.6721 78 59.2915 78Z" fill="#FFB800"/>
<path d="M62.9584 51.1852C57.9734 51.1852 53.9167 47.1037 53.9167 42.0882C53.9167 37.0727 57.9734 32.9911 62.9584 32.9911C67.9433 32.9911 72 37.0727 72 42.0882C72 47.1037 67.9433 51.1852 62.9584 51.1852Z" fill="#FFB800"/>
<path d="M62.9583 35.9799C59.6071 35.9799 56.8871 38.7165 56.8871 42.0882C56.8871 45.4599 59.6071 48.1965 62.9583 48.1965C66.3094 48.1965 69.0294 45.4599 69.0294 42.0882C69.0294 38.7165 66.3001 35.9799 62.9583 35.9799Z" fill="#E9DDC0"/>
<path d="M34.0417 51.1852C39.0353 51.1852 43.0833 47.1123 43.0833 42.0882C43.0833 37.064 39.0353 32.9911 34.0417 32.9911C29.0481 32.9911 25 37.064 25 42.0882C25 47.1123 29.0481 51.1852 34.0417 51.1852Z" fill="#FFB800"/>
<path d="M34.0417 48.1965C37.3947 48.1965 40.1128 45.4617 40.1128 42.0882C40.1128 38.7147 37.3947 35.9799 34.0417 35.9799C30.6887 35.9799 27.9706 38.7147 27.9706 42.0882C27.9706 45.4617 30.6887 48.1965 34.0417 48.1965Z" fill="#E9DDC0"/>
<path d="M62.9583 43.732C62.1414 43.732 61.473 43.0595 61.473 42.2376V42.0882C61.473 41.2662 62.1414 40.5938 62.9583 40.5938C63.7752 40.5938 64.4436 41.2662 64.4436 42.0882V42.2376C64.4436 43.0595 63.7752 43.732 62.9583 43.732Z" fill="#FFB800"/>
<path d="M34.0417 43.732C33.2248 43.732 32.5565 43.0595 32.5565 42.2376V42.0882C32.5565 41.2662 33.2248 40.5938 34.0417 40.5938C34.8586 40.5938 35.527 41.2662 35.527 42.0882V42.2376C35.527 43.0595 34.8586 43.732 34.0417 43.732Z" fill="#FFB800"/>
<path d="M30.1336 28.2465C29.6973 28.2465 29.261 28.0503 28.9732 27.6861C28.4626 27.0323 28.5647 26.0983 29.2146 25.5846L37.0309 19.3362C37.6714 18.8225 38.609 18.9346 39.1196 19.5791C39.6301 20.2235 39.5187 21.1668 38.8782 21.6805L31.0526 27.9196C30.7834 28.1437 30.4585 28.2465 30.1336 28.2465Z" fill="#FFB800"/>
<path d="M66.8665 28.2371C66.5416 28.2371 66.2167 28.1344 65.9474 27.9102L58.1311 21.6619C57.4813 21.1482 57.3792 20.2142 57.8898 19.5604C58.4003 18.9159 59.3286 18.8039 59.9784 19.3175L67.7948 25.5659C68.4353 26.0796 68.5467 27.0136 68.0361 27.6674C67.7298 28.041 67.3028 28.2371 66.8665 28.2371Z" fill="#FFB800"/>
</g>
<defs>
<clipPath id="clip0">
<rect width="47" height="59" fill="white" transform="translate(25 19)"/>
</clipPath>
</defs>
</svg>
