<svg width="97" height="97" viewBox="0 0 97 97" fill="none" xmlns="http://www.w3.org/2000/svg">
<path opacity="0.4" d="M48.5 94.7405C74.1812 94.7405 95 73.9217 95 48.2405C95 22.5592 74.1812 1.74048 48.5 1.74048C22.8188 1.74048 2 22.5592 2 48.2405C2 73.9217 22.8188 94.7405 48.5 94.7405Z" fill="#FFA400"/>
<circle cx="48.5" cy="48.5" r="47" stroke="#FFA400" stroke-width="3"/>
<g clip-path="url(#clip0)">
<path d="M71.3352 72.0001H26.3701C25.5161 72.0001 24.823 71.2996 24.823 70.4365C24.823 69.5735 25.5161 68.873 26.3701 68.873H71.3352C72.1893 68.873 72.8824 69.5735 72.8824 70.4365C72.8824 71.2996 72.1893 72.0001 71.3352 72.0001Z" fill="#FFA400"/>
<path d="M63.575 44.0502C58.3767 44.0502 54.15 39.7786 54.15 34.5251C54.15 29.2716 58.3767 25 63.575 25C68.7733 25 73 29.2716 73 34.5251C73 39.7786 68.7733 44.0502 63.575 44.0502Z" fill="#FFA400"/>
<path d="M63.575 28.127C60.0848 28.127 57.2443 30.9977 57.2443 34.525C57.2443 38.0524 60.0848 40.9231 63.575 40.9231C67.0653 40.9231 69.9058 38.0524 69.9058 34.525C69.9058 30.9977 67.0653 28.127 63.575 28.127Z" fill="#EFCB89"/>
<path d="M33.425 44.0502C28.2267 44.0502 24 39.7786 24 34.5251C24 29.2716 28.2267 25 33.425 25C38.6233 25 42.85 29.2716 42.85 34.5251C42.85 39.7786 38.6233 44.0502 33.425 44.0502Z" fill="#FFA400"/>
<path d="M33.425 28.127C29.9347 28.127 27.0942 30.9977 27.0942 34.525C27.0942 38.0524 29.9347 40.9231 33.425 40.9231C36.9153 40.9231 39.7558 38.0524 39.7558 34.525C39.7558 30.9977 36.9153 28.127 33.425 28.127Z" fill="#EFCB89"/>
<path d="M63.5751 36.245C62.7211 36.245 62.028 35.5445 62.028 34.6814V34.5251C62.028 33.662 62.7211 32.9615 63.5751 32.9615C64.4291 32.9615 65.1222 33.662 65.1222 34.5251V34.6814C65.1222 35.5445 64.4291 36.245 63.5751 36.245Z" fill="#FFA400"/>
<path d="M33.4249 36.245C32.5709 36.245 31.8778 35.5445 31.8778 34.6814V34.5251C31.8778 33.662 32.5709 32.9615 33.4249 32.9615C34.2789 32.9615 34.972 33.662 34.972 34.5251V34.6814C34.972 35.5445 34.2789 36.245 33.4249 36.245Z" fill="#FFA400"/>
</g>
<defs>
<clipPath id="clip0">
<rect width="49" height="47" fill="white" transform="translate(24 25)"/>
</clipPath>
</defs>
</svg>
