<svg width="97" height="97" viewBox="0 0 97 97" fill="none" xmlns="http://www.w3.org/2000/svg">
<g opacity="0.4">
<path opacity="0.4" d="M48.5 94C74.1812 94 95 73.4051 95 48C95 22.5949 74.1812 2 48.5 2C22.8188 2 2 22.5949 2 48C2 73.4051 22.8188 94 48.5 94Z" fill="#D7E317"/>
</g>
<circle cx="48.5" cy="48.5" r="47" stroke="#D7E317" stroke-width="3"/>
<g opacity="0.4">
<path d="M49.5952 77.9577C44.8213 77.9577 37.4974 73.8189 34.119 70.4611C33.5001 69.8449 33.5001 68.8514 34.119 68.2352C34.7378 67.619 35.7355 67.619 36.3544 68.2352C39.1329 71.0019 45.6674 74.8137 49.5952 74.8137C53.523 74.8137 60.0575 71.1683 62.836 68.4015C63.4549 67.7853 64.4526 67.7853 65.0714 68.4015C65.6903 69.0178 65.6903 70.0113 65.0714 70.6275C61.6931 73.9916 54.3754 77.9577 49.5952 77.9577Z" fill="#D7E317"/>
<path d="M64.3827 50.3644C59.0783 50.3644 54.7654 46.0697 54.7654 40.7878C54.7654 35.5058 59.0783 31.2111 64.3827 31.2111C69.6871 31.2111 74 35.5058 74 40.7878C74 46.0697 69.6871 50.3644 64.3827 50.3644Z" fill="#D7E317"/>
<path d="M64.3827 34.3551C60.8212 34.3551 57.9227 37.2413 57.9227 40.7877C57.9227 44.3341 60.8212 47.2203 64.3827 47.2203C67.9442 47.2203 70.8427 44.3341 70.8427 40.7877C70.8427 37.2413 67.9442 34.3551 64.3827 34.3551Z" fill="#E2E4C4"/>
<path d="M33.6173 50.3644C38.9288 50.3644 43.2347 46.0768 43.2347 40.7878C43.2347 35.4987 38.9288 31.2111 33.6173 31.2111C28.3058 31.2111 24 35.4987 24 40.7878C24 46.0768 28.3058 50.3644 33.6173 50.3644Z" fill="#D7E317"/>
<path d="M33.6173 47.2203C37.1851 47.2203 40.0773 44.3404 40.0773 40.7877C40.0773 37.2351 37.1851 34.3551 33.6173 34.3551C30.0496 34.3551 27.1573 37.2351 27.1573 40.7877C27.1573 44.3404 30.0496 47.2203 33.6173 47.2203Z" fill="#E2E4C4"/>
<path d="M64.3828 42.517C63.5113 42.517 62.8041 41.8127 62.8041 40.945V40.7878C62.8041 39.92 63.5113 39.2158 64.3828 39.2158C65.2542 39.2158 65.9614 39.92 65.9614 40.7878V40.945C65.9614 41.8127 65.2542 42.517 64.3828 42.517Z" fill="#D7E317"/>
<path d="M33.6173 42.517C32.7459 42.517 32.0386 41.8127 32.0386 40.945V40.7878C32.0386 39.92 32.7459 39.2158 33.6173 39.2158C34.4887 39.2158 35.196 39.92 35.196 40.7878V40.945C35.196 41.8127 34.4887 42.517 33.6173 42.517Z" fill="#D7E317"/>
<path d="M28.6161 24.7093C27.9657 24.7093 27.3595 24.3068 27.1321 23.6655C26.8417 22.848 27.2647 21.9488 28.0857 21.6533L38.0819 18.088C38.9028 17.7987 39.8058 18.22 40.1026 19.0375C40.3931 19.8549 39.97 20.7541 39.1491 21.0496L29.1528 24.6149C28.976 24.6778 28.7929 24.7093 28.6161 24.7093Z" fill="#D7E317"/>
<path d="M69.3839 24.7093C69.2071 24.7093 69.0303 24.6779 68.8535 24.615L58.851 21.0497C58.0301 20.7605 57.6007 19.855 57.8975 19.0376C58.1943 18.2201 59.0973 17.7925 59.9182 18.0881L69.9144 21.6534C70.7353 21.9426 71.1647 22.8481 70.8679 23.6655C70.6343 24.3069 70.028 24.7093 69.3839 24.7093Z" fill="#D7E317"/>
</g>
</svg>
