<svg width="98" height="97" viewBox="0 0 98 97" fill="none" xmlns="http://www.w3.org/2000/svg">
<g opacity="0.4">
<path opacity="0.4" d="M48.0616 97C74.019 97 95.0616 75.9574 95.0616 50C95.0616 24.0426 74.019 3 48.0616 3C22.1043 3 1.06165 24.0426 1.06165 50C1.06165 75.9574 22.1043 97 48.0616 97Z" fill="#C5F65C"/>
</g>
<circle cx="49.4946" cy="48.5" r="47" stroke="#C5F65C" stroke-width="3"/>
<g clip-path="url(#clip0)">
<path d="M50.3483 79C45.5743 79 41.0846 77.145 37.7062 73.7872C37.0874 73.171 37.0874 72.1775 37.7062 71.5613C38.325 70.945 39.3228 70.945 39.9416 71.5613C42.7201 74.328 46.4205 75.856 50.3483 75.856C54.276 75.856 57.9765 74.328 60.7549 71.5613C61.3738 70.945 62.3715 70.945 62.9904 71.5613C63.6092 72.1775 63.6092 73.171 62.9904 73.7872C59.612 77.1513 55.1285 79 50.3483 79Z" fill="#C5F65C"/>
<path d="M65.3773 50.3644C60.073 50.3644 55.76 46.0697 55.76 40.7878C55.76 35.5058 60.073 31.2111 65.3773 31.2111C70.6817 31.2111 74.9947 35.5058 74.9947 40.7878C74.9947 46.0697 70.6817 50.3644 65.3773 50.3644Z" fill="#C5F65C"/>
<path d="M65.3773 34.3551C61.8158 34.3551 58.9174 37.2413 58.9174 40.7877C58.9174 44.3341 61.8158 47.2203 65.3773 47.2203C68.9388 47.2203 71.8373 44.3341 71.8373 40.7877C71.8373 37.2413 68.9388 34.3551 65.3773 34.3551Z" fill="#E0E7CF"/>
<path d="M34.612 50.3644C39.9235 50.3644 44.2293 46.0768 44.2293 40.7878C44.2293 35.4987 39.9235 31.2111 34.612 31.2111C29.3005 31.2111 24.9946 35.4987 24.9946 40.7878C24.9946 46.0768 29.3005 50.3644 34.612 50.3644Z" fill="#C5F65C"/>
<path d="M34.6119 47.2203C38.1797 47.2203 41.0719 44.3404 41.0719 40.7877C41.0719 37.2351 38.1797 34.3551 34.6119 34.3551C31.0442 34.3551 28.152 37.2351 28.152 40.7877C28.152 44.3404 31.0442 47.2203 34.6119 47.2203Z" fill="#E0E7CF"/>
<path d="M65.3774 42.517C64.506 42.517 63.7987 41.8127 63.7987 40.945V40.7878C63.7987 39.92 64.506 39.2158 65.3774 39.2158C66.2488 39.2158 66.9561 39.92 66.9561 40.7878V40.945C66.9561 41.8127 66.2488 42.517 65.3774 42.517Z" fill="#C5F65C"/>
<path d="M34.612 42.517C33.7406 42.517 33.0333 41.8127 33.0333 40.945V40.7878C33.0333 39.92 33.7406 39.2158 34.612 39.2158C35.4834 39.2158 36.1907 39.92 36.1907 40.7878V40.945C36.1907 41.8127 35.4834 42.517 34.612 42.517Z" fill="#C5F65C"/>
<path d="M29.6107 24.7093C28.9602 24.7093 28.354 24.3068 28.1267 23.6655C27.8362 22.848 28.2593 21.9488 29.0802 21.6533L39.0764 18.088C39.8974 17.7987 40.8004 18.22 41.0971 19.0375C41.3876 19.8549 40.9645 20.7541 40.1436 21.0496L30.1474 24.6149C29.9706 24.6778 29.7875 24.7093 29.6107 24.7093Z" fill="#C5F65C"/>
<path d="M70.3786 24.7093C70.2018 24.7093 70.025 24.6779 69.8482 24.615L59.8457 21.0497C59.0248 20.7605 58.5954 19.855 58.8921 19.0376C59.1889 18.2201 60.0919 17.7925 60.9129 18.0881L70.9091 21.6534C71.73 21.9426 72.1594 22.8481 71.8626 23.6655C71.6289 24.3069 71.0227 24.7093 70.3786 24.7093Z" fill="#C5F65C"/>
</g>
<defs>
<clipPath id="clip0">
<rect width="50" height="61" fill="white" transform="translate(24.9946 18)"/>
</clipPath>
</defs>
</svg>
