<svg width="97" height="97" viewBox="0 0 97 97" fill="none" xmlns="http://www.w3.org/2000/svg">
<g opacity="0.4">
<path opacity="0.4" d="M48.3889 94.7777C74.0087 94.7777 94.7777 74.0087 94.7777 48.3889C94.7777 22.769 74.0087 2 48.3889 2C22.769 2 2 22.769 2 48.3889C2 74.0087 22.769 94.7777 48.3889 94.7777Z" fill="#00E355"/>
</g>
<circle cx="48.5" cy="48.5" r="47" stroke="#00E355" stroke-width="3"/>
<g clip-path="url(#clip0)">
<path d="M48.5 78C35.5434 78 25 67.5844 25 54.7848C25 54.0696 25.5825 53.4941 26.3065 53.4941C27.0305 53.4941 27.613 54.0696 27.613 54.7848C27.613 66.1622 36.983 75.4187 48.5 75.4187C60.017 75.4187 69.387 66.1622 69.387 54.7848C69.387 54.0696 69.9695 53.4941 70.6935 53.4941C71.4175 53.4941 72 54.0696 72 54.7848C72 67.5844 61.4566 78 48.5 78Z" fill="#00E355"/>
<path d="M27.9042 40.0615C27.7544 40.0615 27.5963 40.0368 27.4382 39.9793C26.7641 39.7244 26.4229 38.9846 26.6809 38.3187C26.7558 38.1214 28.5865 33.5342 34.5697 33.5342C40.5362 33.5342 42.4668 38.0967 42.5501 38.2858C42.8247 38.9435 42.5001 39.6998 41.8261 39.9628C41.1604 40.2259 40.4031 39.9135 40.1285 39.2559C40.0619 39.0997 38.7055 36.1073 34.5697 36.1073C30.3673 36.1073 29.1357 39.1901 29.1191 39.223C28.9277 39.7409 28.4367 40.0615 27.9042 40.0615Z" fill="#00E355"/>
<path d="M69.2871 40.0615C68.7712 40.0615 68.2885 39.7573 68.0805 39.2641C68.0139 39.1079 66.6658 36.1155 62.5217 36.1155C58.3859 36.1155 57.121 39.1161 57.0711 39.2394C56.8048 39.8971 56.0476 40.2259 55.3818 39.9711C54.7161 39.7162 54.3749 38.9763 54.6329 38.3187C54.7078 38.1214 56.5385 33.5342 62.5217 33.5342C68.4882 33.5342 70.4188 38.0967 70.5021 38.294C70.7767 38.9517 70.4521 39.708 69.7781 39.9711C69.62 40.0286 69.4535 40.0615 69.2871 40.0615Z" fill="#00E355"/>
<path d="M67.0987 26.9494C66.8657 26.9494 66.641 26.8919 66.433 26.7685L57.3708 21.4086C56.755 21.0469 56.547 20.2495 56.9214 19.6412C57.2959 19.0329 58.0948 18.8273 58.7106 19.1973L67.7727 24.549C68.3885 24.9107 68.5965 25.7081 68.2221 26.3164C67.9724 26.7192 67.5397 26.9494 67.0987 26.9494Z" fill="#00E355"/>
<path d="M30.1094 26.933C29.6684 26.933 29.2273 26.711 28.986 26.3082C28.6115 25.6999 28.8196 24.9025 29.4354 24.5408L38.4975 19.1891C39.1133 18.8274 39.9205 19.0247 40.2866 19.633C40.6611 20.2413 40.4531 21.0387 39.8373 21.4004L30.7835 26.7521C30.5671 26.8754 30.3424 26.933 30.1094 26.933Z" fill="#00E355"/>
</g>
<defs>
<clipPath id="clip0">
<rect width="47" height="59" fill="white" transform="translate(25 19)"/>
</clipPath>
</defs>
</svg>
