<svg width="97" height="97" viewBox="0 0 97 97" fill="none" xmlns="http://www.w3.org/2000/svg">
<circle cx="48.5" cy="48.5" r="47" stroke="#00AB23" stroke-width="3"/>
<g opacity="0.4">
<path opacity="0.4" d="M48.5494 95.0987C74.2579 95.0987 95.0987 74.2579 95.0987 48.5494C95.0987 22.8409 74.2579 2 48.5494 2C22.8409 2 2 22.8409 2 48.5494C2 74.2579 22.8409 95.0987 48.5494 95.0987Z" fill="#00AB23"/>
</g>
<path d="M49.5231 79.4C44.5181 79.4 40.4525 75.3872 40.4525 70.4472C40.4525 69.6416 41.1147 68.988 41.9309 68.988H57.123C57.9392 68.988 58.6014 69.6416 58.6014 70.4472C58.5937 75.3872 54.5281 79.4 49.5231 79.4Z" fill="#00AB23"/>
<path d="M43.5864 71.9064C44.2486 74.536 46.6587 76.4892 49.5308 76.4892C52.3952 76.4892 54.813 74.536 55.4752 71.9064H43.5864Z" fill="#C1D9C6"/>
<path d="M64.0222 53.598C63.9067 53.598 63.7835 53.5828 63.668 53.5524C63.2291 53.446 52.8572 50.8468 52.8572 42.4716C52.8572 37.866 55.3366 35.1148 59.4869 35.1148C61.6275 35.1148 63.0905 35.9128 64.0222 36.6956C64.9539 35.9052 66.4246 35.1148 68.5575 35.1148C72.7078 35.1148 75.1872 37.866 75.1872 42.4716C75.1872 50.8468 64.8153 53.446 64.3764 53.5524C64.2609 53.5828 64.1377 53.598 64.0222 53.598Z" fill="#00AB23"/>
<path d="M59.4869 38.0255C57.046 38.0255 55.8063 39.5227 55.8063 42.4715C55.8063 47.8675 62.4052 50.1551 64.0222 50.6263C65.6315 50.1475 72.2381 47.8447 72.2381 42.4715C72.2381 39.5227 70.9984 38.0255 68.5575 38.0255C66.2475 38.0255 65.3543 39.5379 65.3158 39.6063C65.054 40.0699 64.5227 40.3511 63.9991 40.3587C63.4601 40.3511 62.9596 40.0623 62.7055 39.5835C62.6901 39.5379 61.7969 38.0255 59.4869 38.0255Z" fill="#C1D9C6"/>
<path d="M34.7622 53.598C34.6467 53.598 34.5235 53.5828 34.408 53.5524C33.9691 53.446 23.5972 50.8468 23.5972 42.4716C23.5972 37.866 26.0766 35.1148 30.2269 35.1148C32.3675 35.1148 33.8305 35.9128 34.7622 36.6956C35.6939 35.9052 37.1646 35.1148 39.2975 35.1148C43.4478 35.1148 45.9272 37.866 45.9272 42.4716C45.9272 50.8468 35.5553 53.446 35.1164 53.5524C35.0009 53.5828 34.8777 53.598 34.7622 53.598Z" fill="#00AB23"/>
<path d="M30.227 38.0255C27.7861 38.0255 26.5464 39.5227 26.5464 42.4715C26.5464 47.8675 33.1453 50.1551 34.7623 50.6263C36.3716 50.1475 42.9782 47.8447 42.9782 42.4715C42.9782 39.5227 41.7385 38.0255 39.2976 38.0255C36.9876 38.0255 36.0944 39.5379 36.0559 39.6063C35.7941 40.0699 35.2628 40.3511 34.7392 40.3587C34.2002 40.3511 33.6997 40.0623 33.4456 39.5835C33.4302 39.5379 32.537 38.0255 30.227 38.0255Z" fill="#C1D9C6"/>
<path d="M69.5509 30.0304C69.3353 30.0304 69.1197 29.9848 68.9118 29.886L57.8469 24.5888C57.1154 24.2392 56.8074 23.3652 57.1616 22.6432C57.5158 21.9212 58.4012 21.6172 59.1327 21.9668L70.1976 27.264C70.9291 27.6136 71.2371 28.4876 70.8829 29.2096C70.6211 29.734 70.0976 30.0304 69.5509 30.0304Z" fill="#00AB23"/>
<path d="M29.2259 30.0304C28.6792 30.0304 28.1556 29.7264 27.9015 29.2096C27.5473 28.4876 27.8553 27.6136 28.5868 27.264L39.6517 21.9668C40.3832 21.6172 41.2687 21.9212 41.6229 22.6432C41.9771 23.3652 41.6691 24.2392 40.9376 24.5888L29.865 29.886C29.6571 29.9848 29.4415 30.0304 29.2259 30.0304Z" fill="#00AB23"/>
</svg>
