<svg width="44" height="33" viewBox="0 0 44 33" fill="none" xmlns="http://www.w3.org/2000/svg">
<path d="M33.3536 17.3536C33.5488 17.1583 33.5488 16.8417 33.3536 16.6464L30.1716 13.4645C29.9763 13.2692 29.6597 13.2692 29.4645 13.4645C29.2692 13.6597 29.2692 13.9763 29.4645 14.1716L32.2929 17L29.4645 19.8284C29.2692 20.0237 29.2692 20.3403 29.4645 20.5355C29.6597 20.7308 29.9763 20.7308 30.1716 20.5355L33.3536 17.3536ZM4.37114e-08 17.5L33 17.5L33 16.5L-4.37114e-08 16.5L4.37114e-08 17.5Z" fill="black"/>
<path fill-rule="evenodd" clip-rule="evenodd" d="M38.7357 15.5225C38.5749 12.3989 37.1517 9.45081 34.8028 7.38223C33.7177 6.42664 32.4351 5.65875 30.9881 5.14794C30.8432 5.0968 30.698 5.0487 30.5525 5.00361C29.2954 4.61453 27.9712 4.43701 26.6372 4.49133C22.0262 4.68273 17.7778 7.6266 16.1477 12.2443L15.2048 11.9114C16.3659 8.62218 18.7504 6.11499 21.6669 4.7204L21.6668 4.72031C23.2572 3.95982 24.9273 3.5615 26.5838 3.49243C28.3646 3.41818 30.1297 3.72443 31.7632 4.37028C33.158 4.92103 34.4029 5.69573 35.4712 6.63808C36.7104 7.72941 37.7547 9.08319 38.512 10.6669C39.2552 12.2213 39.6526 13.8518 39.7347 15.4714C39.8171 17.0723 39.5941 18.7157 39.0274 20.3212C37.9179 23.464 35.6917 25.8928 32.9516 27.3194C32.694 27.4534 32.432 27.5786 32.1659 27.6948C30.7878 28.2968 29.3565 28.6332 27.9313 28.7249C26.2768 28.8327 24.5737 28.6145 22.9112 28.0276L22.9113 28.0275C19.8629 26.9514 17.225 24.7124 15.7202 21.5655L16.6224 21.1341C19.3326 26.8017 26.0341 29.2714 31.7488 26.7857C31.8777 26.7296 32.0061 26.671 32.134 26.6099C32.2594 26.5499 32.3833 26.488 32.5056 26.4241C33.7027 25.7986 34.7928 24.9651 35.7166 23.952C37.802 21.6615 38.8924 18.6137 38.7357 15.5225Z" fill="black"/>
</svg>
